<?xml version="1.0" standalone="no"?>
<!DOCTYPE svg PUBLIC "-//W3C//DTD SVG 1.1//EN" "https://www.w3.org/Graphics/SVG/1.1/DTD/svg11.dtd">

<svg width="800" height="500" version="1.1" xmlns="http://www.w3.org/2000/svg">
    <!-- 开始状态 -->
    <ellipse stroke="black" stroke-width="1" fill="none" cx="100" cy="200" rx="30" ry="30"/>
    <text x="95" y="206" font-family="Times New Roman" font-size="20">S</text>

    <!-- 开始双引号状态 -->
    <ellipse stroke="black" stroke-width="1" fill="none" cx="250" cy="200" rx="30" ry="30"/>
    <text x="245" y="206" font-family="Times New Roman" font-size="20">1</text>

    <!-- 字符串内容状态 -->
    <ellipse stroke="black" stroke-width="1" fill="none" cx="400" cy="200" rx="30" ry="30"/>
    <text x="395" y="206" font-family="Times New Roman" font-size="20">2</text>

    <!-- 反斜杠状态 -->
    <ellipse stroke="black" stroke-width="1" fill="none" cx="400" cy="100" rx="30" ry="30"/>
    <text x="395" y="106" font-family="Times New Roman" font-size="20">3</text>

    <!-- 转义字符状态 -->
    <ellipse stroke="black" stroke-width="1" fill="none" cx="550" cy="100" rx="30" ry="30"/>
    <text x="545" y="106" font-family="Times New Roman" font-size="20">4</text>

    <!-- 结束状态 -->
    <ellipse stroke="black" stroke-width="1" fill="none" cx="550" cy="200" rx="30" ry="30"/>
    <ellipse stroke="black" stroke-width="1" fill="none" cx="550" cy="200" rx="24" ry="24"/>
    <text x="545" y="206" font-family="Times New Roman" font-size="20">5</text>

    <!-- 开始箭头 -->
    <path stroke="black" stroke-width="1" fill="none" d="M 30,200 L 70,200"/>
    <polygon fill="black" stroke-width="1" points="70,200 62,195 62,205"/>

    <!-- S到1的转换（"） -->
    <path stroke="black" stroke-width="1" fill="none" d="M 130,200 L 220,200"/>
    <polygon fill="black" stroke-width="1" points="220,200 212,195 212,205"/>
    <text x="170" y="190" font-family="Times New Roman" font-size="16">"</text>

    <!-- 1到2的转换（普通字符） -->
    <path stroke="black" stroke-width="1" fill="none" d="M 280,200 L 370,200"/>
    <polygon fill="black" stroke-width="1" points="370,200 362,195 362,205"/>
    <text x="290" y="190" font-family="Times New Roman" font-size="16">除\和"外的字符</text>

    <!-- 2到2的自循环（普通字符） -->
    <path stroke="black" stroke-width="1" fill="none" d="M 400,170 A 20,20 0 1 1 430,200"/>
    <polygon fill="black" stroke-width="1" points="430,200 425,192 420,202"/>
    <text x="440" y="170" font-family="Times New Roman" font-size="16">除\和"外的字符</text>

    <!-- 2到3的转换（\） -->
    <path stroke="black" stroke-width="1" fill="none" d="M 400,170 L 400,130"/>
    <polygon fill="black" stroke-width="1" points="400,130 395,138 405,138"/>
    <text x="410" y="150" font-family="Times New Roman" font-size="16">\</text>

    <!-- 3到4的转换（转义字符） -->
    <path stroke="black" stroke-width="1" fill="none" d="M 430,100 L 520,100"/>
    <polygon fill="black" stroke-width="1" points="520,100 512,95 512,105"/>
    <text x="440" y="90" font-family="Times New Roman" font-size="16">n,t,r,\,',",0</text>

    <!-- 4到2的转换（返回字符串内容状态） -->
    <path stroke="black" stroke-width="1" fill="none" d="M 550,130 L 420,170"/>
    <polygon fill="black" stroke-width="1" points="420,170 428,173 426,163"/>

    <!-- 2到5的转换（"） -->
    <path stroke="black" stroke-width="1" fill="none" d="M 430,200 L 520,200"/>
    <polygon fill="black" stroke-width="1" points="520,200 512,195 512,205"/>
    <text x="460" y="190" font-family="Times New Roman" font-size="16">"</text>

    <!-- 图例说明 -->
    <text x="50" y="300" font-family="Times New Roman" font-size="14">状态说明：</text>
    <text x="50" y="320" font-family="Times New Roman" font-size="14">S: 初始状态</text>
    <text x="50" y="340" font-family="Times New Roman" font-size="14">1: 开始双引号</text>
    <text x="50" y="360" font-family="Times New Roman" font-size="14">2: 字符串内容（可以有多个字符）</text>
    <text x="50" y="380" font-family="Times New Roman" font-size="14">3: 反斜杠</text>
    <text x="50" y="400" font-family="Times New Roman" font-size="14">4: 转义字符</text>
    <text x="50" y="420" font-family="Times New Roman" font-size="14">5: 结束状态（接受状态）</text>

    <text x="350" y="300" font-family="Times New Roman" font-size="14">转义字符说明：</text>
    <text x="350" y="320" font-family="Times New Roman" font-size="14">\n: 换行</text>
    <text x="350" y="340" font-family="Times New Roman" font-size="14">\t: 制表符</text>
    <text x="350" y="360" font-family="Times New Roman" font-size="14">\r: 回车</text>
    <text x="350" y="380" font-family="Times New Roman" font-size="14">\\: 反斜杠</text>
    <text x="350" y="400" font-family="Times New Roman" font-size="14">\': 单引号</text>
    <text x="350" y="420" font-family="Times New Roman" font-size="14">\": 双引号</text>
    <text x="350" y="440" font-family="Times New Roman" font-size="14">\0: 空字符</text>

    <!-- 错误提示 -->
    <text x="50" y="460" font-family="Times New Roman" font-size="14" fill="red">错误情况：</text>
    <text x="50" y="480" font-family="Times New Roman" font-size="14" fill="red">1. 未闭合的字符串（缺少结束引号）</text>
    <text x="350" y="480" font-family="Times New Roman" font-size="14" fill="red">2. 非法的转义序列</text>
</svg>
